<?xml version="1.0" standalone="no"?>
<svg xmlns="http://www.w3.org/2000/svg" viewBox="0 0 134.377 29.001" width="134.377" height="29.001"><g fill="#000000" color="#000000" transform="translate(0, 0) scale(0.5753969)"><svg width="50.4" height="50.4" x="0.0" y="0.0" viewBox="0 0 50.4 50.4"><g><g><g><path d="M29.376,32.328c-4.152,0-7.533-3.377-7.533-7.532c0-4.168,3.38-7.544,7.533-7.544c4.174,0,7.545,3.375,7.545,7.544     C36.921,28.951,33.547,32.328,29.376,32.328z"></path></g><path d="M50.316,50.4c0,0-2.583-8.313-8.971-14.851c-1.796-1.943-6.618-3.798-9.944-0.997C25.659,39.387,25.659,50.4,25.659,50.4    H50.316z"></path></g><path d="M23.178,50.384c-0.022-3.006-2.463-5.437-5.476-5.437c-2.439,0-4.502,1.594-5.212,3.796l-9.599,0.002   c-0.089,0-0.547-0.018-0.938-0.36c-0.365-0.319-0.318-0.722-0.281-1.044c0.007-0.066,0.014-0.126,0.008-0.126l-0.001,0.001   c1.593-5.442,5.233-13.92,5.615-14.647c0.123-0.212,0.439-0.448,0.75-0.562l0.29-0.086l0.035,0.18   c1.708,8.14,3.429,10.955,3.503,11.073l0.191,0.307l2.298-0.479L9.02,17.209l-2.331,0.483l-0.027,0.392   c-0.01,0.149-0.232,3.688,1.241,11.589c-0.001,0.001-0.002,0.001-0.003,0.002l0.083,0.429l-0.364,0.142   c-0.57,0.235-1.058,0.597-1.534,1.133C5.59,31.931,2.04,40.13,0.081,46.821c-0.014,0.053-0.025,0.107-0.037,0.206   c-0.14,0.934,0.051,1.728,0.563,2.355c0.805,0.981,2.109,1.01,2.255,1.01l11.864-0.003v-0.006H23.178z"></path></g></svg></g><line x1="41" y1="1" x2="41" y2="28.001" stroke="#000000" stroke-linecap="round"></line><path fill="#000000" fill-rule="nonzero" d="M3.48 19.66L3.48 19.66Q1.73 19.66 0.86 18.37Q0 17.09 0 14.02L0 14.02L0 11.33Q0 9.74 0.26 8.39Q0.53 7.03 1.26 6.22Q1.99 5.40 3.41 5.40L3.41 5.40Q4.10 5.40 4.68 5.71Q5.26 6.02 5.71 6.48L5.71 6.48L5.71 0.02L8.28 0.02L8.28 19.46L5.71 19.46L5.71 18.58Q5.26 19.06 4.72 19.36Q4.18 19.66 3.48 19.66ZM4.13 17.64L4.13 17.64Q4.49 17.64 4.90 17.51Q5.30 17.38 5.71 17.11L5.71 17.11L5.71 8.02Q5.38 7.78 4.97 7.60Q4.56 7.42 4.08 7.42L4.08 7.42Q3.19 7.42 2.88 8.27Q2.57 9.12 2.57 10.32L2.57 10.32L2.57 14.23Q2.57 15.19 2.68 15.97Q2.78 16.75 3.12 17.20Q3.46 17.64 4.13 17.64ZM14.71 19.66L14.71 19.66Q13.08 19.66 12.19 19.02Q11.30 18.38 10.96 17.15Q10.61 15.91 10.61 14.11L10.61 14.11L10.61 10.94Q10.61 9.10 10.97 7.87Q11.33 6.65 12.23 6.02Q13.13 5.40 14.71 5.40L14.71 5.40Q16.46 5.40 17.29 6.12Q18.12 6.84 18.38 8.20Q18.65 9.55 18.65 11.45L18.65 11.45L18.65 12.58L13.18 12.58L13.18 15.36Q13.18 16.20 13.33 16.73Q13.49 17.26 13.84 17.51Q14.18 17.76 14.74 17.76L14.74 17.76Q15.31 17.76 15.61 17.48Q15.91 17.21 16.02 16.69Q16.13 16.18 16.13 15.48L16.13 15.48L16.13 14.64L18.62 14.64L18.62 15.17Q18.62 17.26 17.74 18.46Q16.85 19.66 14.71 19.66ZM13.18 10.44L13.18 11.18L16.13 11.18L16.13 9.94Q16.13 9.07 16.03 8.48Q15.94 7.90 15.64 7.60Q15.34 7.30 14.69 7.30L14.69 7.30Q14.06 7.30 13.74 7.58Q13.42 7.87 13.30 8.56Q13.18 9.24 13.18 10.44L13.18 10.44ZM25.92 19.46L22.78 19.46L20.04 5.59L22.63 5.59L24.34 16.75L26.06 5.59L28.56 5.59L25.92 19.46ZM43.61 19.46L35.93 19.46L35.93 0.02L38.64 0.02L38.64 17.52L43.61 17.52L43.61 19.46ZM47.23 19.66L47.23 19.66Q46.42 19.66 45.96 19.22Q45.50 18.79 45.32 18.14Q45.14 17.50 45.14 16.82L45.14 16.82L45.14 5.59L47.71 5.59L47.71 16.06Q47.71 16.80 47.93 17.22Q48.14 17.64 48.82 17.64L48.82 17.64Q49.25 17.64 49.72 17.39Q50.18 17.14 50.62 16.78L50.62 16.78L50.62 5.59L53.18 5.59L53.18 19.46L50.62 19.46L50.62 18.10Q49.94 18.74 49.09 19.20Q48.24 19.66 47.23 19.66ZM58.42 19.44L55.85 19.44L55.85 0L58.42 0L58.42 11.59L62.16 5.59L64.85 5.59L61.58 11.02L64.75 19.46L62.18 19.46L59.59 12.36L58.42 14.14L58.42 19.44ZM68.59 19.66L68.59 19.66Q67.78 19.66 67.15 19.19Q66.53 18.72 66.17 17.99Q65.81 17.26 65.81 16.44L65.81 16.44Q65.81 15.14 66.24 14.26Q66.67 13.37 67.43 12.76Q68.18 12.14 69.18 11.69Q70.18 11.23 71.28 10.80L71.28 10.80L71.28 9.82Q71.28 8.98 71.18 8.42Q71.09 7.87 70.79 7.60Q70.49 7.32 69.89 7.32L69.89 7.32Q69.36 7.32 69.04 7.56Q68.71 7.80 68.57 8.24Q68.42 8.69 68.42 9.29L68.42 9.29L68.42 9.98L65.88 9.89Q65.93 7.58 66.94 6.49Q67.94 5.40 70.06 5.40L70.06 5.40Q72.12 5.40 72.98 6.53Q73.85 7.66 73.85 9.79L73.85 9.79L73.85 16.13Q73.85 16.78 73.88 17.38Q73.92 17.98 73.98 18.49Q74.04 19.01 74.09 19.46L74.09 19.46L71.74 19.46Q71.66 19.08 71.56 18.49Q71.45 17.90 71.40 17.42L71.40 17.42Q71.16 18.24 70.48 18.95Q69.79 19.66 68.59 19.66ZM69.60 17.45L69.60 17.45Q69.98 17.45 70.32 17.23Q70.66 17.02 70.92 16.74Q71.18 16.46 71.28 16.30L71.28 16.30L71.28 12.36Q70.68 12.70 70.15 13.03Q69.62 13.37 69.23 13.74Q68.83 14.11 68.60 14.58Q68.38 15.05 68.38 15.65L68.38 15.65Q68.38 16.49 68.69 16.97Q69.00 17.45 69.60 17.45ZM79.54 19.66L79.54 19.66Q77.83 19.66 76.80 18.59Q75.77 17.52 75.62 15.77L75.62 15.77L77.76 15.12Q77.95 16.44 78.41 17.10Q78.86 17.76 79.75 17.76L79.75 17.76Q80.45 17.76 80.81 17.36Q81.17 16.97 81.17 16.30L81.17 16.30Q81.17 15.70 80.90 15.22Q80.64 14.74 80.04 14.23L80.04 14.23L77.66 12.19Q76.94 11.57 76.45 10.80Q75.96 10.03 75.96 8.81L75.96 8.81Q75.96 7.70 76.40 6.95Q76.85 6.19 77.65 5.80Q78.46 5.40 79.54 5.40L79.54 5.40Q81.19 5.40 82.07 6.47Q82.94 7.54 83.06 9.05L83.06 9.05L81.34 9.70Q81.24 8.98 81.05 8.44Q80.86 7.90 80.52 7.60Q80.18 7.30 79.63 7.30L79.63 7.30Q79.01 7.30 78.64 7.72Q78.26 8.14 78.26 8.71L78.26 8.71Q78.26 9.07 78.42 9.42Q78.58 9.77 78.96 10.10L78.96 10.10L81.41 12.36Q81.91 12.82 82.36 13.34Q82.80 13.87 83.09 14.54Q83.38 15.22 83.38 16.10L83.38 16.10Q83.38 17.28 82.90 18.07Q82.42 18.86 81.55 19.26Q80.69 19.66 79.54 19.66Z" transform="translate(51, 4.673)"></path></svg>